<svg version="1.1" id="Layer_1" xmlns="http://www.w3.org/2000/svg" xmlns:xlink="http://www.w3.org/1999/xlink" x="0px" y="0px"
	 width="100%" viewBox="0 0 169 147" enable-background="new 0 0 169 147" xml:space="preserve">
<path fill="#FCFCFC" opacity="1.000000" stroke="none" 
	d="
M98.000000,148.000000 
	C65.333336,148.000000 33.166676,148.000000 1.000009,148.000000 
	C1.000006,99.000008 1.000006,50.000019 1.000003,1.000022 
	C57.333317,1.000015 113.666634,1.000015 169.999969,1.000007 
	C169.999969,49.999981 169.999969,98.999962 169.999985,147.999969 
	C146.166672,148.000000 122.333336,148.000000 98.000000,148.000000 
M59.855457,139.815338 
	C82.663208,139.693573 105.565071,141.672668 129.083786,137.311508 
	C115.540825,122.927727 102.707062,109.297165 89.547791,95.320892 
	C96.746796,88.512917 103.356850,82.261902 109.875000,76.097794 
	C125.104126,90.475914 140.759216,105.256203 157.165512,120.745720 
	C158.591156,115.254250 160.664551,110.802963 160.755569,106.311516 
	C161.173416,85.694214 161.815536,65.029770 160.865738,44.452000 
	C160.030945,26.365454 150.970886,16.770430 133.248215,12.493208 
	C112.641418,7.519928 91.608582,7.406929 70.630615,8.520661 
	C59.209103,9.127035 47.699211,10.474708 36.531986,12.888779 
	C20.633856,16.325550 10.936548,26.764112 10.164775,41.582714 
	C9.152523,61.018688 8.579366,80.550179 9.304986,99.985046 
	C10.152151,122.675354 19.472919,132.595047 41.651638,137.146820 
	C47.348560,138.316025 53.168880,138.883957 59.855457,139.815338 
z"/>
<path fill="#323131" opacity="1.000000" stroke="none" 
	d="
M59.393982,139.771729 
	C53.168880,138.883957 47.348560,138.316025 41.651638,137.146820 
	C19.472919,132.595047 10.152151,122.675354 9.304986,99.985046 
	C8.579366,80.550179 9.152523,61.018688 10.164775,41.582714 
	C10.936548,26.764112 20.633856,16.325550 36.531986,12.888779 
	C47.699211,10.474708 59.209103,9.127035 70.630615,8.520661 
	C91.608582,7.406929 112.641418,7.519928 133.248215,12.493208 
	C150.970886,16.770430 160.030945,26.365454 160.865738,44.452000 
	C161.815536,65.029770 161.173416,85.694214 160.755569,106.311516 
	C160.664551,110.802963 158.591156,115.254250 157.165512,120.745720 
	C140.759216,105.256203 125.104126,90.475914 109.875000,76.097794 
	C103.356850,82.261902 96.746796,88.512917 89.547791,95.320892 
	C102.707062,109.297165 115.540825,122.927727 129.083786,137.311508 
	C105.565071,141.672668 82.663208,139.693573 59.393982,139.771729 
M103.068359,69.185936 
	C103.817543,66.010078 105.082359,62.848183 105.168777,59.654388 
	C105.252792,56.549923 106.218819,54.977158 109.000900,53.678909 
	C115.953377,50.434544 122.741394,46.837761 130.238358,43.058250 
	C123.768501,36.911537 116.473862,33.842712 108.830719,30.382889 
	C108.379005,29.962240 107.973190,29.243519 107.468651,29.165810 
	C100.293602,28.060736 93.160728,28.233536 86.211960,30.490135 
	C85.005020,30.882088 84.067589,32.103947 82.353836,33.195023 
	C74.363373,39.542561 65.960327,45.452652 58.563332,52.429401 
	C55.069878,55.724380 51.677383,60.990295 51.496700,65.493881 
	C51.230217,72.136017 47.805847,75.518166 43.630001,79.181969 
	C38.237404,73.515717 34.383091,76.119469 29.159269,81.560074 
	C26.221416,84.619858 26.096348,88.217255 29.040182,91.269646 
	C36.193607,98.686859 43.441925,106.023689 50.924694,113.104759 
	C52.936977,115.009003 55.844025,117.013718 58.854927,114.299438 
	C61.072929,112.299942 63.497780,110.328018 65.031570,107.849442 
	C65.909073,106.431404 65.531395,103.938400 65.067856,102.092888 
	C64.755402,100.848892 63.306099,99.890442 61.708702,98.046074 
	C65.400787,95.595146 68.456604,92.821465 72.047462,91.389038 
	C75.758659,89.908600 79.989655,89.731232 84.382080,89.470421 
	C84.880920,88.838356 85.379761,88.206291 86.177361,87.007210 
	C91.293419,81.961906 96.409477,76.916611 102.200798,71.894859 
	C102.400337,71.231911 102.599869,70.568962 103.068359,69.185936 
z"/>
<path fill="#FCFCFC" opacity="1.000000" stroke="none" 
	d="
M108.944550,31.181459 
	C116.473862,33.842712 123.768501,36.911537 130.238358,43.058250 
	C122.741394,46.837761 115.953377,50.434544 109.000900,53.678909 
	C106.218819,54.977158 105.252792,56.549923 105.168777,59.654388 
	C105.082359,62.848183 103.817543,66.010078 102.653488,69.675583 
	C102.000923,70.733917 101.763229,71.302612 101.525528,71.871307 
	C96.409477,76.916611 91.293419,81.961906 85.752815,87.410645 
	C84.883263,88.203995 84.438263,88.593910 83.993263,88.983833 
	C79.989655,89.731232 75.758659,89.908600 72.047462,91.389038 
	C68.456604,92.821465 65.400787,95.595146 61.708702,98.046074 
	C63.306099,99.890442 64.755402,100.848892 65.067856,102.092888 
	C65.531395,103.938400 65.909073,106.431404 65.031570,107.849442 
	C63.497780,110.328018 61.072929,112.299942 58.854927,114.299438 
	C55.844025,117.013718 52.936977,115.009003 50.924694,113.104759 
	C43.441925,106.023689 36.193607,98.686859 29.040182,91.269646 
	C26.096348,88.217255 26.221416,84.619858 29.159269,81.560074 
	C34.383091,76.119469 38.237404,73.515717 43.630001,79.181969 
	C47.805847,75.518166 51.230217,72.136017 51.496700,65.493881 
	C51.677383,60.990295 55.069878,55.724380 58.563332,52.429401 
	C65.960327,45.452652 74.363373,39.542561 83.081917,33.147491 
	C91.986305,29.815651 100.490494,30.827000 108.944550,31.181459 
z"/>
<path fill="#232222" opacity="1.000000" stroke="none" 
	d="
M108.887634,30.782173 
	C100.490494,30.827000 91.986305,29.815651 83.407837,33.021221 
	C84.067589,32.103947 85.005020,30.882088 86.211960,30.490135 
	C93.160728,28.233536 100.293602,28.060736 107.468651,29.165810 
	C107.973190,29.243519 108.379005,29.962240 108.887634,30.782173 
z"/>
<path fill="#222121" opacity="1.000000" stroke="none" 
	d="
M101.863159,71.883087 
	C101.763229,71.302612 102.000923,70.733917 102.519012,70.035614 
	C102.599869,70.568962 102.400337,71.231911 101.863159,71.883087 
z"/>
<path fill="#222121" opacity="1.000000" stroke="none" 
	d="
M84.187668,89.227127 
	C84.438263,88.593910 84.883263,88.203995 85.603439,87.694153 
	C85.379761,88.206291 84.880920,88.838356 84.187668,89.227127 
z"/>
</svg>