<svg id="svg" xmlns="http://www.w3.org/2000/svg" xmlns:xlink="http://www.w3.org/1999/xlink" width="400" height="370.3703703703703" viewBox="0, 0, 400,370.3703703703703" version="1.1"><g id="svgg"><path id="path0" d="M126.740 28.601 C 84.698 81.684,116.193 129.905,183.853 116.045 C 230.617 106.466,236.750 111.912,236.924 163.169 L 237.037 196.708 204.841 196.502 C 187.134 196.389,167.457 191.990,161.115 186.726 C 77.902 117.661,-42.968 229.447,13.968 322.815 C 55.430 390.808,285.166 390.538,374.512 322.391 C 407.103 297.532,407.074 295.433,372.745 195.022 C 349.712 127.654,283.460 51.911,223.775 24.711 C 155.953 -6.196,154.246 -6.128,126.740 28.601 M211.111 47.986 C 231.481 57.582,242.315 65.711,235.185 66.050 C 228.056 66.389,222.222 69.242,222.222 72.390 C 222.222 75.538,206.687 81.717,187.700 86.123 C 160.335 92.472,155.728 92.268,165.478 85.138 C 172.243 80.192,177.778 72.345,177.778 67.702 C 177.778 63.058,181.111 59.259,185.185 59.259 C 197.449 59.259,193.521 46.386,179.630 41.052 C 170.948 37.718,163.310 41.126,156.504 51.370 C 150.914 59.783,143.338 66.667,139.666 66.667 C 135.995 66.667,138.452 58.333,145.126 48.148 C 159.784 25.777,163.943 25.766,211.111 47.986 M294.715 117.086 C 334.414 170.474,347.760 196.423,365.321 254.371 L 376.187 290.224 343.190 311.150 C 297.640 340.037,245.597 351.347,189.822 344.479 C 164.864 341.406,128.739 339.468,109.543 340.173 C 66.752 341.744,40.754 326.301,29.676 292.732 C 1.912 208.607,117.859 152.970,161.417 229.516 C 176.043 255.218,203.979 261.242,196.296 237.037 C 189.497 215.615,220.315 217.304,254.060 240.204 C 285.907 261.816,308.250 250.151,281.455 225.902 C 270.111 215.636,266.606 202.865,266.404 171.074 C 266.260 148.280,261.704 121.623,256.281 111.836 C 248.319 97.469,247.719 66.667,255.401 66.667 C 256.403 66.667,274.094 89.356,294.715 117.086 M229.694 295.652 C 198.962 298.937,188.416 303.169,186.558 312.963 C 183.633 328.383,222.723 330.847,268.519 318.129 C 296.320 310.408,308.282 287.772,283.333 290.096 C 276.204 290.760,252.066 293.260,229.694 295.652 " stroke="none" fill="#005eb2" fill-rule="evenodd"></path></g></svg>