<?xml version="1.0" ?><svg id="Layer_1" style="enable-background:new 0 0 128 128;" version="1.1" viewBox="0 0 128 128" xml:space="preserve" xmlns="http://www.w3.org/2000/svg" xmlns:xlink="http://www.w3.org/1999/xlink"><g><g><path d="M34,73h6v-6h-6V73z M43,79H31c-1.66,0-3-1.34-3-3V64c0-1.66,1.34-3,3-3h12c1.66,0,3,1.34,3,3v12C46,77.66,44.66,79,43,79z    "/></g><g><path d="M43,31H31c-1.66,0-3-1.34-3-3V16c0-1.66,1.34-3,3-3h12c1.66,0,3,1.34,3,3v12C46,29.66,44.66,31,43,31z M34,25h6v-6h-6V25z    "/></g><g><path d="M69,31H57c-1.66,0-3-1.34-3-3V16c0-1.66,1.34-3,3-3h12c1.66,0,3,1.34,3,3v12C72,29.66,70.66,31,69,31z M60,25h6v-6h-6V25z    "/></g><g><path d="M43,55H31c-1.66,0-3-1.34-3-3V40c0-1.66,1.34-3,3-3h12c1.66,0,3,1.34,3,3v12C46,53.66,44.66,55,43,55z M34,49h6v-6h-6V49z    "/></g><g><path d="M106,22.73c-0.72,0-1.45-0.26-2.03-0.79c-1.22-1.12-1.3-3.02-0.18-4.24l11-12c1.12-1.22,3.02-1.3,4.24-0.18    c1.22,1.12,1.3,3.02,0.18,4.24l-11,12C107.62,22.4,106.81,22.73,106,22.73z"/></g><g><path d="M113,101.73c-0.86,0-1.71-0.37-2.31-1.08l-5-6c-1.06-1.27-0.89-3.16,0.38-4.23c1.28-1.06,3.16-0.89,4.23,0.38l5,6    c1.06,1.27,0.89,3.16-0.38,4.23C114.36,101.5,113.68,101.73,113,101.73z"/></g><g><path d="M124,121H84V92.52l9.72,8.1c1.3,1.09,3.28,0.16,3.28-1.54V84.11c0-1.24,1.12-2.18,2.34-1.97l18.8,3.29    c1.77,0.31,3.02-1.69,1.96-3.15l-9.62-13.2c-0.68-0.93-0.43-2.25,0.54-2.87l11.72-7.46c1.28-0.82,1.22-2.71-0.12-3.44l-11.24-6.13    c-1.1-0.6-1.38-2.05-0.59-3.02l12.97-15.91c1.23-1.51-0.2-3.7-2.07-3.19L98.8,33.24c-1.01,0.27-2.07-0.28-2.41-1.28l-3-8.68    c-0.41-1.18-1.79-1.7-2.87-1.09L84,25.89V14c0-7.17-5.83-13-13-13H29c-7.17,0-13,5.83-13,13v71h-3c-1.66,0-3,1.34-3,3s1.34,3,3,3    h30c1.66,0,3-1.34,3-3s-1.34-3-3-3H22V14c0-3.86,3.14-7,7-7h42c3.86,0,7,3.14,7,7v15.28v15.95l7.36-6.13    c0.65-0.54,1.64-0.08,1.64,0.77v5.52c0,0.67,0.65,1.15,1.29,0.96l6.96-2.09c0.76-0.23,1.47,0.47,1.25,1.23l-1.91,6.72    c-0.13,0.47,0.09,0.96,0.52,1.17l7.19,3.51c0.72,0.35,0.75,1.37,0.05,1.77l-7.02,3.99c-0.4,0.23-0.59,0.69-0.47,1.13L96.53,70    c0.2,0.76-0.5,1.44-1.25,1.22l-6.99-2.1C87.65,68.92,87,69.4,87,70.07v5.52c0,0.85-0.99,1.31-1.64,0.77L78,70.23V121H46v-21    c0-1.66-1.34-3-3-3H13c-1.66,0-3,1.34-3,3v21H4c-1.66,0-3,1.34-3,3s1.34,3,3,3h120c1.66,0,3-1.34,3-3S125.66,121,124,121z M25,121    h-9v-18h9V121z M40,121h-9v-18h9V121z"/></g><g><path d="M69,55H57c-1.66,0-3-1.34-3-3V40c0-1.66,1.34-3,3-3h12c1.66,0,3,1.34,3,3v12C72,53.66,70.66,55,69,55z M60,49h6v-6h-6V49z    "/></g><g><path d="M69,103H57c-1.66,0-3-1.34-3-3V88c0-1.66,1.34-3,3-3h12c1.66,0,3,1.34,3,3v12C72,101.66,70.66,103,69,103z M60,97h6v-6h-6    V97z"/></g><g><path d="M69,79H57c-1.66,0-3-1.34-3-3V64c0-1.66,1.34-3,3-3h12c1.66,0,3,1.34,3,3v12C72,77.66,70.66,79,69,79z M60,73h6v-6h-6V73z    "/></g></g></svg>