<svg version="1.1" id="Layer_1" xmlns="http://www.w3.org/2000/svg" xmlns:xlink="http://www.w3.org/1999/xlink" x="0px" y="0px"
	 width="100%" viewBox="0 0 613 558" enable-background="new 0 0 613 558" xml:space="preserve">
<path fill="#FFFFFF" opacity="1.000000" stroke="none" 
	d="
M342.000000,559.000000 
	C228.000000,559.000000 114.500000,559.000000 1.000000,559.000000 
	C1.000000,373.000000 1.000000,187.000000 1.000000,1.000000 
	C205.333328,1.000000 409.666656,1.000000 614.000000,1.000000 
	C614.000000,187.000000 614.000000,373.000000 614.000000,559.000000 
	C523.500000,559.000000 433.000000,559.000000 342.000000,559.000000 
M207.959839,297.852142 
	C219.759338,297.659363 231.558655,297.453278 243.358612,297.294098 
	C244.566849,297.277771 245.778885,297.542572 247.447754,297.727844 
	C246.316010,299.867737 245.453903,301.456665 244.628540,303.064453 
	C227.246338,336.924042 209.470688,370.589691 192.638077,404.720398 
	C182.496826,425.283356 173.922562,446.609802 169.402725,469.285522 
	C167.320755,479.730560 167.805176,489.704468 176.476196,497.333649 
	C188.562637,507.967896 203.789001,511.666107 218.829697,516.569580 
	C219.058228,515.238892 219.172455,514.604736 219.275589,513.968689 
	C222.093643,496.588348 224.148422,479.042908 227.867844,461.857697 
	C239.969208,405.944489 263.364258,354.440063 290.822876,304.628052 
	C291.547699,303.313202 293.830872,302.116791 295.391205,302.111908 
	C330.220337,302.003265 365.052002,301.894745 399.877533,302.285858 
	C405.329742,302.347076 410.845337,304.567169 416.126740,306.384460 
	C417.397614,306.821747 418.728973,309.736877 418.546478,311.343750 
	C416.089020,332.985901 412.255524,354.532013 410.966400,376.232819 
	C408.885284,411.266357 408.573120,446.402191 407.194763,481.482300 
	C406.879150,489.515289 410.181427,494.508820 416.834167,498.392670 
	C430.362305,506.290375 444.992432,511.079437 460.215851,514.043213 
	C467.558167,515.472656 475.125336,515.746765 483.151459,516.603943 
	C482.779327,511.416443 482.356415,507.788391 482.282471,504.153290 
	C481.007599,441.492035 482.518860,378.999390 491.852020,316.847565 
	C498.446747,272.931580 505.877045,229.203323 517.102173,186.210983 
	C526.886780,148.735748 537.947998,111.672653 555.302490,76.826241 
	C560.239197,66.913696 560.150452,66.532715 550.967651,60.418789 
	C550.553772,60.143177 550.091248,59.941772 549.666565,59.680920 
	C530.828735,48.108727 510.617096,39.748516 489.264709,34.172199 
	C484.399780,32.901699 479.320526,32.451988 474.143402,31.591843 
	C473.985901,33.904228 473.831238,35.219200 473.818359,36.535553 
	C473.772491,41.237015 471.899628,44.276054 467.394165,46.557007 
	C461.040680,49.773537 455.088623,53.856354 449.206268,57.918270 
	C410.639099,84.549889 378.339386,117.831482 348.274567,153.451889 
	C318.047455,189.264664 290.623962,227.100739 266.325195,267.192749 
	C265.400940,268.717743 263.714142,270.480194 262.125427,270.783234 
	C254.805420,272.179474 247.394119,273.096954 239.089050,274.021027 
	C228.002655,274.021027 216.916245,274.021027 205.542358,274.021027 
	C205.365356,271.374695 205.045258,269.400848 205.132553,267.445221 
	C205.777954,252.986542 205.975204,238.481140 207.344528,224.088531 
	C208.921326,207.515396 212.049377,191.142532 219.272141,175.918213 
	C224.850525,164.159958 232.317108,154.172058 245.751785,150.576080 
	C258.665588,147.119507 267.156799,152.926834 268.028015,166.201782 
	C268.293274,170.243378 267.634583,174.531754 266.486328,178.438873 
	C264.475647,185.280563 261.599182,191.862961 259.397552,198.655151 
	C258.042084,202.836914 259.200317,206.741791 262.933167,209.200211 
	C266.456970,211.520920 270.068420,210.471100 273.000671,207.804565 
	C275.199921,205.804611 277.232574,203.534317 278.954285,201.110764 
	C288.768372,187.296173 293.690369,171.595642 297.415955,155.218155 
	C299.925171,144.187775 298.133911,134.816940 290.902496,126.463501 
	C282.201080,116.412003 273.804901,106.001640 264.255432,96.807190 
	C255.797775,88.663933 245.985687,81.916389 236.679565,74.670799 
	C232.986115,71.795151 228.968719,71.819916 224.483658,73.306908 
	C201.280273,80.999863 183.515656,95.661293 169.813049,115.539787 
	C153.761856,138.825378 147.384232,164.201492 153.798157,192.212708 
	C158.024155,210.668747 162.562851,229.060562 166.363098,247.603775 
	C168.442154,257.748657 169.277161,268.148468 170.654541,278.296082 
	C162.263885,279.244507 155.138519,279.730072 148.125916,280.894592 
	C103.373077,288.326508 57.480938,325.017395 48.339634,378.036774 
	C47.156815,384.897125 46.304199,392.830658 48.576588,399.073975 
	C54.632332,415.711914 67.713913,426.585358 82.796265,435.302582 
	C95.195045,442.468781 107.972115,442.186737 121.365593,439.068542 
	C160.790207,429.889923 188.015503,407.208862 200.610184,368.185760 
	C207.015259,348.340424 206.604584,327.846375 206.001282,307.340698 
	C205.910873,304.267517 206.765366,301.166595 207.959839,297.852142 
z"/>
<path fill="#484647" opacity="1.000000" stroke="none" 
	d="
M240.015549,274.186127 
	C247.394119,273.096954 254.805420,272.179474 262.125427,270.783234 
	C263.714142,270.480194 265.400940,268.717743 266.325195,267.192749 
	C290.623962,227.100739 318.047455,189.264664 348.274567,153.451889 
	C378.339386,117.831482 410.639099,84.549889 449.206268,57.918270 
	C455.088623,53.856354 461.040680,49.773537 467.394165,46.557007 
	C471.899628,44.276054 473.772491,41.237015 473.818359,36.535553 
	C473.831238,35.219200 473.985901,33.904228 474.143402,31.591843 
	C479.320526,32.451988 484.399780,32.901699 489.264709,34.172199 
	C510.617096,39.748516 530.828735,48.108727 549.666565,59.680920 
	C550.091248,59.941772 550.553772,60.143177 550.967651,60.418789 
	C560.150452,66.532715 560.239197,66.913696 555.302490,76.826241 
	C537.947998,111.672653 526.886780,148.735748 517.102173,186.210983 
	C505.877045,229.203323 498.446747,272.931580 491.852020,316.847565 
	C482.518860,378.999390 481.007599,441.492035 482.282471,504.153290 
	C482.356415,507.788391 482.779327,511.416443 483.151459,516.603943 
	C475.125336,515.746765 467.558167,515.472656 460.215851,514.043213 
	C444.992432,511.079437 430.362305,506.290375 416.834167,498.392670 
	C410.181427,494.508820 406.879150,489.515289 407.194763,481.482300 
	C408.573120,446.402191 408.885284,411.266357 410.966400,376.232819 
	C412.255524,354.532013 416.089020,332.985901 418.546478,311.343750 
	C418.728973,309.736877 417.397614,306.821747 416.126740,306.384460 
	C410.845337,304.567169 405.329742,302.347076 399.877533,302.285858 
	C365.052002,301.894745 330.220337,302.003265 295.391205,302.111908 
	C293.830872,302.116791 291.547699,303.313202 290.822876,304.628052 
	C263.364258,354.440063 239.969208,405.944489 227.867844,461.857697 
	C224.148422,479.042908 222.093643,496.588348 219.275589,513.968689 
	C219.172455,514.604736 219.058228,515.238892 218.829697,516.569580 
	C203.789001,511.666107 188.562637,507.967896 176.476196,497.333649 
	C167.805176,489.704468 167.320755,479.730560 169.402725,469.285522 
	C173.922562,446.609802 182.496826,425.283356 192.638077,404.720398 
	C209.470688,370.589691 227.246338,336.924042 244.628540,303.064453 
	C245.453903,301.456665 246.316010,299.867737 247.447754,297.727844 
	C245.778885,297.542572 244.566849,297.277771 243.358612,297.294098 
	C231.558655,297.453278 219.759338,297.659363 207.153625,297.941040 
	C204.640274,297.387665 202.933121,296.745392 201.225967,296.103119 
	C202.099243,294.619415 202.609070,292.514679 203.906342,291.755524 
	C210.937775,287.640869 218.060287,283.649597 225.360031,280.037323 
	C230.059570,277.711823 235.117981,276.111481 240.015549,274.186127 
M419.783630,131.282410 
	C377.210693,169.513657 344.010620,215.228699 313.527161,262.978546 
	C351.599304,261.331848 389.090820,259.710297 426.255219,258.102844 
	C438.017670,207.507492 449.882507,156.471680 462.035706,104.195549 
	C445.209747,110.888733 432.525452,120.476944 419.783630,131.282410 
z"/>
<path fill="#565354" opacity="1.000000" stroke="none" 
	d="
M239.552307,274.103577 
	C235.117981,276.111481 230.059570,277.711823 225.360031,280.037323 
	C218.060287,283.649597 210.937775,287.640869 203.906342,291.755524 
	C202.609070,292.514679 202.099243,294.619415 201.225967,296.103119 
	C202.933121,296.745392 204.640274,297.387665 206.765076,298.054199 
	C206.765366,301.166595 205.910873,304.267517 206.001282,307.340698 
	C206.604584,327.846375 207.015259,348.340424 200.610184,368.185760 
	C188.015503,407.208862 160.790207,429.889923 121.365593,439.068542 
	C107.972115,442.186737 95.195045,442.468781 82.796265,435.302582 
	C67.713913,426.585358 54.632332,415.711914 48.576588,399.073975 
	C46.304199,392.830658 47.156815,384.897125 48.339634,378.036774 
	C57.480938,325.017395 103.373077,288.326508 148.125916,280.894592 
	C155.138519,279.730072 162.263885,279.244507 170.654541,278.296082 
	C169.277161,268.148468 168.442154,257.748657 166.363098,247.603775 
	C162.562851,229.060562 158.024155,210.668747 153.798157,192.212708 
	C147.384232,164.201492 153.761856,138.825378 169.813049,115.539787 
	C183.515656,95.661293 201.280273,80.999863 224.483658,73.306908 
	C228.968719,71.819916 232.986115,71.795151 236.679565,74.670799 
	C245.985687,81.916389 255.797775,88.663933 264.255432,96.807190 
	C273.804901,106.001640 282.201080,116.412003 290.902496,126.463501 
	C298.133911,134.816940 299.925171,144.187775 297.415955,155.218155 
	C293.690369,171.595642 288.768372,187.296173 278.954285,201.110764 
	C277.232574,203.534317 275.199921,205.804611 273.000671,207.804565 
	C270.068420,210.471100 266.456970,211.520920 262.933167,209.200211 
	C259.200317,206.741791 258.042084,202.836914 259.397552,198.655151 
	C261.599182,191.862961 264.475647,185.280563 266.486328,178.438873 
	C267.634583,174.531754 268.293274,170.243378 268.028015,166.201782 
	C267.156799,152.926834 258.665588,147.119507 245.751785,150.576080 
	C232.317108,154.172058 224.850525,164.159958 219.272141,175.918213 
	C212.049377,191.142532 208.921326,207.515396 207.344528,224.088531 
	C205.975204,238.481140 205.777954,252.986542 205.132553,267.445221 
	C205.045258,269.400848 205.365356,271.374695 205.542358,274.021027 
	C216.916245,274.021027 228.002655,274.021027 239.552307,274.103577 
M95.424873,373.983673 
	C94.079826,377.201843 92.458305,380.335571 91.444038,383.654816 
	C88.886467,392.024567 89.285446,400.082611 94.821236,407.363251 
	C100.404472,414.706268 101.413620,415.092896 109.379723,410.530365 
	C139.995468,392.995392 159.034805,366.414337 168.846542,332.992310 
	C171.051743,325.480682 171.605453,317.484253 172.985382,309.320862 
	C147.865601,313.058258 112.477417,342.840607 95.424873,373.983673 
z"/>
<path fill="#FEFEFE" opacity="1.000000" stroke="none" 
	d="
M420.067322,131.070129 
	C432.525452,120.476944 445.209747,110.888733 462.035706,104.195549 
	C449.882507,156.471680 438.017670,207.507492 426.255219,258.102844 
	C389.090820,259.710297 351.599304,261.331848 313.527161,262.978546 
	C344.010620,215.228699 377.210693,169.513657 420.067322,131.070129 
z"/>
<path fill="#FDFDFD" opacity="1.000000" stroke="none" 
	d="
M95.623932,373.667603 
	C112.477417,342.840607 147.865601,313.058258 172.985382,309.320862 
	C171.605453,317.484253 171.051743,325.480682 168.846542,332.992310 
	C159.034805,366.414337 139.995468,392.995392 109.379723,410.530365 
	C101.413620,415.092896 100.404472,414.706268 94.821236,407.363251 
	C89.285446,400.082611 88.886467,392.024567 91.444038,383.654816 
	C92.458305,380.335571 94.079826,377.201843 95.623932,373.667603 
z"/>
</svg>